<svg width="99" height="97" viewBox="0 0 99 97" fill="none" xmlns="http://www.w3.org/2000/svg">
<rect x="31" width="1" height="1" fill="url(#paint0_radial_2_152)"/>
<rect x="31" y="1" width="4" height="1" fill="url(#paint1_radial_2_152)"/>
<rect width="5" height="1" transform="matrix(1 0 0 -1 32 4)" fill="url(#paint2_radial_2_152)"/>
<rect width="7" height="1" transform="matrix(1 0 0 -1 32 6)" fill="url(#paint3_radial_2_152)"/>
<rect width="7" height="1" transform="matrix(1 0 0 -1 33 8)" fill="url(#paint4_radial_2_152)"/>
<rect width="8" height="1" transform="matrix(1 0 0 -1 34 10)" fill="url(#paint5_radial_2_152)"/>
<rect width="10" height="1" transform="matrix(1 0 0 -1 34 12)" fill="url(#paint6_radial_2_152)"/>
<rect width="10" height="1" transform="matrix(1 0 0 -1 35 14)" fill="url(#paint7_radial_2_152)"/>
<rect width="11" height="1" transform="matrix(1 0 0 -1 35 16)" fill="url(#paint8_radial_2_152)"/>
<rect width="11" height="1" transform="matrix(1 0 0 -1 36 18)" fill="url(#paint9_radial_2_152)"/>
<rect width="12" height="1" transform="matrix(1 0 0 -1 37 20)" fill="url(#paint10_radial_2_152)"/>
<rect width="13" height="1" transform="matrix(1 0 0 -1 37 22)" fill="url(#paint11_radial_2_152)"/>
<rect width="13" height="1" transform="matrix(1 0 0 -1 38 24)" fill="url(#paint12_radial_2_152)"/>
<rect width="14" height="1" transform="matrix(1 0 0 -1 38 26)" fill="url(#paint13_radial_2_152)"/>
<rect width="15" height="1" transform="matrix(1 0 0 -1 39 28)" fill="url(#paint14_radial_2_152)"/>
<rect width="15" height="1" transform="matrix(1 0 0 -1 39 28)" fill="url(#paint15_radial_2_152)"/>
<rect width="15" height="1" transform="matrix(1 0 0 -1 40 30)" fill="url(#paint16_radial_2_152)"/>
<rect width="16" height="1" transform="matrix(1 0 0 -1 40 32)" fill="url(#paint17_radial_2_152)"/>
<rect width="16" height="1" transform="matrix(1 0 0 -1 41 34)" fill="url(#paint18_radial_2_152)"/>
<rect width="18" height="1" transform="matrix(1 0 0 -1 41 36)" fill="url(#paint19_radial_2_152)"/>
<rect width="18" height="1" transform="matrix(1 0 0 -1 42 38)" fill="url(#paint20_radial_2_152)"/>
<rect width="19" height="1" transform="matrix(1 0 0 -1 42 40)" fill="url(#paint21_radial_2_152)"/>
<rect width="19" height="1" transform="matrix(1 0 0 -1 43 42)" fill="url(#paint22_radial_2_152)"/>
<rect width="20" height="1" transform="matrix(1 0 0 -1 43 44)" fill="url(#paint23_radial_2_152)"/>
<rect width="16" height="1" transform="matrix(1 0 0 -1 21 44)" fill="url(#paint24_radial_2_152)"/>
<rect width="16" height="1" transform="matrix(1 0 0 -1 21 42)" fill="url(#paint25_radial_2_152)"/>
<rect width="14" height="1" transform="matrix(1 0 0 -1 23 40)" fill="url(#paint26_radial_2_152)"/>
<rect width="9" height="1" transform="matrix(1 0 0 -1 5 46)" fill="url(#paint27_radial_2_152)"/>
<rect width="9" height="1" transform="matrix(1 0 0 -1 4 44)" fill="url(#paint28_radial_2_152)"/>
<rect width="9" height="1" transform="matrix(1 0 0 -1 3 42)" fill="url(#paint29_radial_2_152)"/>
<rect width="8" height="1" transform="matrix(1 0 0 -1 3 40)" fill="url(#paint30_radial_2_152)"/>
<rect width="8" height="1" transform="matrix(1 0 0 -1 2 38)" fill="url(#paint31_radial_2_152)"/>
<rect width="7" height="1" transform="matrix(1 0 0 -1 1 36)" fill="url(#paint32_radial_2_152)"/>
<rect width="6" height="1" transform="matrix(1 0 0 -1 1 34)" fill="url(#paint33_radial_2_152)"/>
<rect width="5" height="1" transform="matrix(1 0 0 -1 0 32)" fill="url(#paint34_radial_2_152)"/>
<rect width="94" height="1" transform="matrix(1 0 0 -1 5 48)" fill="url(#paint35_radial_2_152)"/>
<rect width="76" height="1" transform="matrix(1 0 0 -1 19 46)" fill="url(#paint36_radial_2_152)"/>
<rect width="1" height="1" transform="matrix(1 0 0 -1 31 97)" fill="url(#paint37_radial_2_152)"/>
<rect width="4" height="1" transform="matrix(1 0 0 -1 31 96)" fill="url(#paint38_radial_2_152)"/>
<rect x="32" y="93" width="5" height="1" fill="url(#paint39_radial_2_152)"/>
<rect x="32" y="91" width="7" height="1" fill="url(#paint40_radial_2_152)"/>
<rect x="33" y="89" width="7" height="1" fill="url(#paint41_radial_2_152)"/>
<rect x="34" y="87" width="8" height="1" fill="url(#paint42_radial_2_152)"/>
<rect x="34" y="85" width="10" height="1" fill="url(#paint43_radial_2_152)"/>
<rect x="35" y="83" width="10" height="1" fill="url(#paint44_radial_2_152)"/>
<rect x="35" y="81" width="11" height="1" fill="url(#paint45_radial_2_152)"/>
<rect x="36" y="79" width="11" height="1" fill="url(#paint46_radial_2_152)"/>
<rect x="37" y="77" width="12" height="1" fill="url(#paint47_radial_2_152)"/>
<rect x="37" y="75" width="13" height="1" fill="url(#paint48_radial_2_152)"/>
<rect x="38" y="73" width="13" height="1" fill="url(#paint49_radial_2_152)"/>
<rect x="38" y="71" width="14" height="1" fill="url(#paint50_radial_2_152)"/>
<rect x="39" y="69" width="15" height="1" fill="url(#paint51_radial_2_152)"/>
<rect x="39" y="69" width="15" height="1" fill="url(#paint52_radial_2_152)"/>
<rect x="40" y="67" width="15" height="1" fill="url(#paint53_radial_2_152)"/>
<rect x="40" y="65" width="16" height="1" fill="url(#paint54_radial_2_152)"/>
<rect x="41" y="63" width="16" height="1" fill="url(#paint55_radial_2_152)"/>
<rect x="41" y="61" width="18" height="1" fill="url(#paint56_radial_2_152)"/>
<rect x="42" y="59" width="18" height="1" fill="url(#paint57_radial_2_152)"/>
<rect x="42" y="57" width="19" height="1" fill="url(#paint58_radial_2_152)"/>
<rect x="43" y="55" width="19" height="1" fill="url(#paint59_radial_2_152)"/>
<rect x="43" y="53" width="20" height="1" fill="url(#paint60_radial_2_152)"/>
<rect x="21" y="53" width="16" height="1" fill="url(#paint61_radial_2_152)"/>
<rect x="21" y="55" width="16" height="1" fill="url(#paint62_radial_2_152)"/>
<rect x="23" y="57" width="14" height="1" fill="url(#paint63_radial_2_152)"/>
<rect x="5" y="51" width="9" height="1" fill="url(#paint64_radial_2_152)"/>
<rect x="4" y="53" width="9" height="1" fill="url(#paint65_radial_2_152)"/>
<rect x="3" y="55" width="9" height="1" fill="url(#paint66_radial_2_152)"/>
<rect x="3" y="57" width="8" height="1" fill="url(#paint67_radial_2_152)"/>
<rect x="2" y="59" width="8" height="1" fill="url(#paint68_radial_2_152)"/>
<rect x="1" y="61" width="7" height="1" fill="url(#paint69_radial_2_152)"/>
<rect x="1" y="63" width="6" height="1" fill="url(#paint70_radial_2_152)"/>
<rect y="65" width="5" height="1" fill="url(#paint71_radial_2_152)"/>
<rect x="5" y="49" width="94" height="1" fill="url(#paint72_radial_2_152)"/>
<rect x="19" y="51" width="76" height="1" fill="url(#paint73_radial_2_152)"/>
<defs>
<radialGradient id="paint0_radial_2_152" cx="0" cy="0" r="1" gradientUnits="userSpaceOnUse" gradientTransform="translate(31.5 0.5) rotate(90) scale(0.845361)">
<stop stop-color="white"/>
<stop offset="1" stop-color="#555555"/>
</radialGradient>
<radialGradient id="paint1_radial_2_152" cx="0" cy="0" r="1" gradientUnits="userSpaceOnUse" gradientTransform="translate(33 1.5) rotate(90) scale(0.845361 3.38144)">
<stop stop-color="white"/>
<stop offset="1" stop-color="#555555"/>
</radialGradient>
<radialGradient id="paint2_radial_2_152" cx="0" cy="0" r="1" gradientUnits="userSpaceOnUse" gradientTransform="translate(2.5 0.5) rotate(90) scale(0.845361 4.2268)">
<stop stop-color="white"/>
<stop offset="1" stop-color="#555555"/>
</radialGradient>
<radialGradient id="paint3_radial_2_152" cx="0" cy="0" r="1" gradientUnits="userSpaceOnUse" gradientTransform="translate(3.5 0.5) rotate(90) scale(0.845361 5.91753)">
<stop stop-color="white"/>
<stop offset="1" stop-color="#555555"/>
</radialGradient>
<radialGradient id="paint4_radial_2_152" cx="0" cy="0" r="1" gradientUnits="userSpaceOnUse" gradientTransform="translate(3.5 0.5) rotate(90) scale(0.845361 5.91753)">
<stop stop-color="white"/>
<stop offset="1" stop-color="#555555"/>
</radialGradient>
<radialGradient id="paint5_radial_2_152" cx="0" cy="0" r="1" gradientUnits="userSpaceOnUse" gradientTransform="translate(4 0.5) rotate(90) scale(0.845361 6.76289)">
<stop stop-color="white"/>
<stop offset="1" stop-color="#555555"/>
</radialGradient>
<radialGradient id="paint6_radial_2_152" cx="0" cy="0" r="1" gradientUnits="userSpaceOnUse" gradientTransform="translate(5 0.5) rotate(90) scale(0.845361 8.45361)">
<stop stop-color="white"/>
<stop offset="1" stop-color="#555555"/>
</radialGradient>
<radialGradient id="paint7_radial_2_152" cx="0" cy="0" r="1" gradientUnits="userSpaceOnUse" gradientTransform="translate(5 0.5) rotate(90) scale(0.845361 8.45361)">
<stop stop-color="white"/>
<stop offset="1" stop-color="#555555"/>
</radialGradient>
<radialGradient id="paint8_radial_2_152" cx="0" cy="0" r="1" gradientUnits="userSpaceOnUse" gradientTransform="translate(5.5 0.5) rotate(90) scale(0.845361 9.29897)">
<stop stop-color="white"/>
<stop offset="1" stop-color="#555555"/>
</radialGradient>
<radialGradient id="paint9_radial_2_152" cx="0" cy="0" r="1" gradientUnits="userSpaceOnUse" gradientTransform="translate(5.5 0.5) rotate(90) scale(0.845361 9.29897)">
<stop stop-color="white"/>
<stop offset="1" stop-color="#555555"/>
</radialGradient>
<radialGradient id="paint10_radial_2_152" cx="0" cy="0" r="1" gradientUnits="userSpaceOnUse" gradientTransform="translate(6 0.5) rotate(90) scale(0.845361 10.1443)">
<stop stop-color="white"/>
<stop offset="1" stop-color="#555555"/>
</radialGradient>
<radialGradient id="paint11_radial_2_152" cx="0" cy="0" r="1" gradientUnits="userSpaceOnUse" gradientTransform="translate(6.5 0.5) rotate(90) scale(0.845361 10.9897)">
<stop stop-color="white"/>
<stop offset="1" stop-color="#555555"/>
</radialGradient>
<radialGradient id="paint12_radial_2_152" cx="0" cy="0" r="1" gradientUnits="userSpaceOnUse" gradientTransform="translate(6.5 0.5) rotate(90) scale(0.845361 10.9897)">
<stop stop-color="white"/>
<stop offset="1" stop-color="#555555"/>
</radialGradient>
<radialGradient id="paint13_radial_2_152" cx="0" cy="0" r="1" gradientUnits="userSpaceOnUse" gradientTransform="translate(7 0.5) rotate(90) scale(0.845361 11.8351)">
<stop stop-color="white"/>
<stop offset="1" stop-color="#555555"/>
</radialGradient>
<radialGradient id="paint14_radial_2_152" cx="0" cy="0" r="1" gradientUnits="userSpaceOnUse" gradientTransform="translate(7.5 0.5) rotate(90) scale(0.845361 12.6804)">
<stop stop-color="white"/>
<stop offset="1" stop-color="#555555"/>
</radialGradient>
<radialGradient id="paint15_radial_2_152" cx="0" cy="0" r="1" gradientUnits="userSpaceOnUse" gradientTransform="translate(7.5 0.5) rotate(90) scale(0.845361 12.6804)">
<stop stop-color="white"/>
<stop offset="1" stop-color="#555555"/>
</radialGradient>
<radialGradient id="paint16_radial_2_152" cx="0" cy="0" r="1" gradientUnits="userSpaceOnUse" gradientTransform="translate(7.5 0.5) rotate(90) scale(0.845361 12.6804)">
<stop stop-color="white"/>
<stop offset="1" stop-color="#555555"/>
</radialGradient>
<radialGradient id="paint17_radial_2_152" cx="0" cy="0" r="1" gradientUnits="userSpaceOnUse" gradientTransform="translate(8 0.5) rotate(90) scale(0.845361 13.5258)">
<stop stop-color="white"/>
<stop offset="1" stop-color="#555555"/>
</radialGradient>
<radialGradient id="paint18_radial_2_152" cx="0" cy="0" r="1" gradientUnits="userSpaceOnUse" gradientTransform="translate(8 0.5) rotate(90) scale(0.845361 13.5258)">
<stop stop-color="white"/>
<stop offset="1" stop-color="#555555"/>
</radialGradient>
<radialGradient id="paint19_radial_2_152" cx="0" cy="0" r="1" gradientUnits="userSpaceOnUse" gradientTransform="translate(9 0.5) rotate(90) scale(0.845361 15.2165)">
<stop stop-color="white"/>
<stop offset="1" stop-color="#555555"/>
</radialGradient>
<radialGradient id="paint20_radial_2_152" cx="0" cy="0" r="1" gradientUnits="userSpaceOnUse" gradientTransform="translate(9 0.5) rotate(90) scale(0.845361 15.2165)">
<stop stop-color="white"/>
<stop offset="1" stop-color="#555555"/>
</radialGradient>
<radialGradient id="paint21_radial_2_152" cx="0" cy="0" r="1" gradientUnits="userSpaceOnUse" gradientTransform="translate(9.5 0.5) rotate(90) scale(0.845361 16.0619)">
<stop stop-color="white"/>
<stop offset="1" stop-color="#555555"/>
</radialGradient>
<radialGradient id="paint22_radial_2_152" cx="0" cy="0" r="1" gradientUnits="userSpaceOnUse" gradientTransform="translate(9.5 0.5) rotate(90) scale(0.845361 16.0619)">
<stop stop-color="white"/>
<stop offset="1" stop-color="#555555"/>
</radialGradient>
<radialGradient id="paint23_radial_2_152" cx="0" cy="0" r="1" gradientUnits="userSpaceOnUse" gradientTransform="translate(10 0.5) rotate(90) scale(0.845361 16.9072)">
<stop stop-color="white"/>
<stop offset="1" stop-color="#555555"/>
</radialGradient>
<radialGradient id="paint24_radial_2_152" cx="0" cy="0" r="1" gradientUnits="userSpaceOnUse" gradientTransform="translate(8 0.5) rotate(90) scale(0.845361 13.5258)">
<stop stop-color="white"/>
<stop offset="1" stop-color="#555555"/>
</radialGradient>
<radialGradient id="paint25_radial_2_152" cx="0" cy="0" r="1" gradientUnits="userSpaceOnUse" gradientTransform="translate(8 0.5) rotate(90) scale(0.845361 13.5258)">
<stop stop-color="white"/>
<stop offset="1" stop-color="#555555"/>
</radialGradient>
<radialGradient id="paint26_radial_2_152" cx="0" cy="0" r="1" gradientUnits="userSpaceOnUse" gradientTransform="translate(7 0.5) rotate(90) scale(0.845361 11.8351)">
<stop stop-color="white"/>
<stop offset="1" stop-color="#555555"/>
</radialGradient>
<radialGradient id="paint27_radial_2_152" cx="0" cy="0" r="1" gradientUnits="userSpaceOnUse" gradientTransform="translate(4.5 0.5) rotate(90) scale(0.845361 7.60825)">
<stop stop-color="white"/>
<stop offset="1" stop-color="#555555"/>
</radialGradient>
<radialGradient id="paint28_radial_2_152" cx="0" cy="0" r="1" gradientUnits="userSpaceOnUse" gradientTransform="translate(4.5 0.5) rotate(90) scale(0.845361 7.60825)">
<stop stop-color="white"/>
<stop offset="1" stop-color="#555555"/>
</radialGradient>
<radialGradient id="paint29_radial_2_152" cx="0" cy="0" r="1" gradientUnits="userSpaceOnUse" gradientTransform="translate(4.5 0.5) rotate(90) scale(0.845361 7.60825)">
<stop stop-color="white"/>
<stop offset="1" stop-color="#555555"/>
</radialGradient>
<radialGradient id="paint30_radial_2_152" cx="0" cy="0" r="1" gradientUnits="userSpaceOnUse" gradientTransform="translate(4 0.5) rotate(90) scale(0.845361 6.76289)">
<stop stop-color="white"/>
<stop offset="1" stop-color="#555555"/>
</radialGradient>
<radialGradient id="paint31_radial_2_152" cx="0" cy="0" r="1" gradientUnits="userSpaceOnUse" gradientTransform="translate(4 0.5) rotate(90) scale(0.845361 6.76289)">
<stop stop-color="white"/>
<stop offset="1" stop-color="#555555"/>
</radialGradient>
<radialGradient id="paint32_radial_2_152" cx="0" cy="0" r="1" gradientUnits="userSpaceOnUse" gradientTransform="translate(3.5 0.5) rotate(90) scale(0.845361 5.91753)">
<stop stop-color="white"/>
<stop offset="1" stop-color="#555555"/>
</radialGradient>
<radialGradient id="paint33_radial_2_152" cx="0" cy="0" r="1" gradientUnits="userSpaceOnUse" gradientTransform="translate(3 0.5) rotate(90) scale(0.845361 5.07216)">
<stop stop-color="white"/>
<stop offset="1" stop-color="#555555"/>
</radialGradient>
<radialGradient id="paint34_radial_2_152" cx="0" cy="0" r="1" gradientUnits="userSpaceOnUse" gradientTransform="translate(2.5 0.5) rotate(90) scale(0.845361 4.2268)">
<stop stop-color="white"/>
<stop offset="1" stop-color="#555555"/>
</radialGradient>
<radialGradient id="paint35_radial_2_152" cx="0" cy="0" r="1" gradientUnits="userSpaceOnUse" gradientTransform="translate(47 0.5) rotate(90) scale(0.845361 79.4639)">
<stop stop-color="white"/>
<stop offset="1" stop-color="#555555"/>
</radialGradient>
<radialGradient id="paint36_radial_2_152" cx="0" cy="0" r="1" gradientUnits="userSpaceOnUse" gradientTransform="translate(38 0.5) rotate(90) scale(0.845361 64.2474)">
<stop stop-color="white"/>
<stop offset="1" stop-color="#555555"/>
</radialGradient>
<radialGradient id="paint37_radial_2_152" cx="0" cy="0" r="1" gradientUnits="userSpaceOnUse" gradientTransform="translate(0.5 0.5) rotate(90) scale(0.845361)">
<stop stop-color="white"/>
<stop offset="1" stop-color="#555555"/>
</radialGradient>
<radialGradient id="paint38_radial_2_152" cx="0" cy="0" r="1" gradientUnits="userSpaceOnUse" gradientTransform="translate(2 0.5) rotate(90) scale(0.845361 3.38144)">
<stop stop-color="white"/>
<stop offset="1" stop-color="#555555"/>
</radialGradient>
<radialGradient id="paint39_radial_2_152" cx="0" cy="0" r="1" gradientUnits="userSpaceOnUse" gradientTransform="translate(34.5 93.5) rotate(90) scale(0.845361 4.2268)">
<stop stop-color="white"/>
<stop offset="1" stop-color="#555555"/>
</radialGradient>
<radialGradient id="paint40_radial_2_152" cx="0" cy="0" r="1" gradientUnits="userSpaceOnUse" gradientTransform="translate(35.5 91.5) rotate(90) scale(0.845361 5.91753)">
<stop stop-color="white"/>
<stop offset="1" stop-color="#555555"/>
</radialGradient>
<radialGradient id="paint41_radial_2_152" cx="0" cy="0" r="1" gradientUnits="userSpaceOnUse" gradientTransform="translate(36.5 89.5) rotate(90) scale(0.845361 5.91753)">
<stop stop-color="white"/>
<stop offset="1" stop-color="#555555"/>
</radialGradient>
<radialGradient id="paint42_radial_2_152" cx="0" cy="0" r="1" gradientUnits="userSpaceOnUse" gradientTransform="translate(38 87.5) rotate(90) scale(0.845361 6.76289)">
<stop stop-color="white"/>
<stop offset="1" stop-color="#555555"/>
</radialGradient>
<radialGradient id="paint43_radial_2_152" cx="0" cy="0" r="1" gradientUnits="userSpaceOnUse" gradientTransform="translate(39 85.5) rotate(90) scale(0.845361 8.45361)">
<stop stop-color="white"/>
<stop offset="1" stop-color="#555555"/>
</radialGradient>
<radialGradient id="paint44_radial_2_152" cx="0" cy="0" r="1" gradientUnits="userSpaceOnUse" gradientTransform="translate(40 83.5) rotate(90) scale(0.845361 8.45361)">
<stop stop-color="white"/>
<stop offset="1" stop-color="#555555"/>
</radialGradient>
<radialGradient id="paint45_radial_2_152" cx="0" cy="0" r="1" gradientUnits="userSpaceOnUse" gradientTransform="translate(40.5 81.5) rotate(90) scale(0.845361 9.29897)">
<stop stop-color="white"/>
<stop offset="1" stop-color="#555555"/>
</radialGradient>
<radialGradient id="paint46_radial_2_152" cx="0" cy="0" r="1" gradientUnits="userSpaceOnUse" gradientTransform="translate(41.5 79.5) rotate(90) scale(0.845361 9.29897)">
<stop stop-color="white"/>
<stop offset="1" stop-color="#555555"/>
</radialGradient>
<radialGradient id="paint47_radial_2_152" cx="0" cy="0" r="1" gradientUnits="userSpaceOnUse" gradientTransform="translate(43 77.5) rotate(90) scale(0.845361 10.1443)">
<stop stop-color="white"/>
<stop offset="1" stop-color="#555555"/>
</radialGradient>
<radialGradient id="paint48_radial_2_152" cx="0" cy="0" r="1" gradientUnits="userSpaceOnUse" gradientTransform="translate(43.5 75.5) rotate(90) scale(0.845361 10.9897)">
<stop stop-color="white"/>
<stop offset="1" stop-color="#555555"/>
</radialGradient>
<radialGradient id="paint49_radial_2_152" cx="0" cy="0" r="1" gradientUnits="userSpaceOnUse" gradientTransform="translate(44.5 73.5) rotate(90) scale(0.845361 10.9897)">
<stop stop-color="white"/>
<stop offset="1" stop-color="#555555"/>
</radialGradient>
<radialGradient id="paint50_radial_2_152" cx="0" cy="0" r="1" gradientUnits="userSpaceOnUse" gradientTransform="translate(45 71.5) rotate(90) scale(0.845361 11.8351)">
<stop stop-color="white"/>
<stop offset="1" stop-color="#555555"/>
</radialGradient>
<radialGradient id="paint51_radial_2_152" cx="0" cy="0" r="1" gradientUnits="userSpaceOnUse" gradientTransform="translate(46.5 69.5) rotate(90) scale(0.845361 12.6804)">
<stop stop-color="white"/>
<stop offset="1" stop-color="#555555"/>
</radialGradient>
<radialGradient id="paint52_radial_2_152" cx="0" cy="0" r="1" gradientUnits="userSpaceOnUse" gradientTransform="translate(46.5 69.5) rotate(90) scale(0.845361 12.6804)">
<stop stop-color="white"/>
<stop offset="1" stop-color="#555555"/>
</radialGradient>
<radialGradient id="paint53_radial_2_152" cx="0" cy="0" r="1" gradientUnits="userSpaceOnUse" gradientTransform="translate(47.5 67.5) rotate(90) scale(0.845361 12.6804)">
<stop stop-color="white"/>
<stop offset="1" stop-color="#555555"/>
</radialGradient>
<radialGradient id="paint54_radial_2_152" cx="0" cy="0" r="1" gradientUnits="userSpaceOnUse" gradientTransform="translate(48 65.5) rotate(90) scale(0.845361 13.5258)">
<stop stop-color="white"/>
<stop offset="1" stop-color="#555555"/>
</radialGradient>
<radialGradient id="paint55_radial_2_152" cx="0" cy="0" r="1" gradientUnits="userSpaceOnUse" gradientTransform="translate(49 63.5) rotate(90) scale(0.845361 13.5258)">
<stop stop-color="white"/>
<stop offset="1" stop-color="#555555"/>
</radialGradient>
<radialGradient id="paint56_radial_2_152" cx="0" cy="0" r="1" gradientUnits="userSpaceOnUse" gradientTransform="translate(50 61.5) rotate(90) scale(0.845361 15.2165)">
<stop stop-color="white"/>
<stop offset="1" stop-color="#555555"/>
</radialGradient>
<radialGradient id="paint57_radial_2_152" cx="0" cy="0" r="1" gradientUnits="userSpaceOnUse" gradientTransform="translate(51 59.5) rotate(90) scale(0.845361 15.2165)">
<stop stop-color="white"/>
<stop offset="1" stop-color="#555555"/>
</radialGradient>
<radialGradient id="paint58_radial_2_152" cx="0" cy="0" r="1" gradientUnits="userSpaceOnUse" gradientTransform="translate(51.5 57.5) rotate(90) scale(0.845361 16.0619)">
<stop stop-color="white"/>
<stop offset="1" stop-color="#555555"/>
</radialGradient>
<radialGradient id="paint59_radial_2_152" cx="0" cy="0" r="1" gradientUnits="userSpaceOnUse" gradientTransform="translate(52.5 55.5) rotate(90) scale(0.845361 16.0619)">
<stop stop-color="white"/>
<stop offset="1" stop-color="#555555"/>
</radialGradient>
<radialGradient id="paint60_radial_2_152" cx="0" cy="0" r="1" gradientUnits="userSpaceOnUse" gradientTransform="translate(53 53.5) rotate(90) scale(0.845361 16.9072)">
<stop stop-color="white"/>
<stop offset="1" stop-color="#555555"/>
</radialGradient>
<radialGradient id="paint61_radial_2_152" cx="0" cy="0" r="1" gradientUnits="userSpaceOnUse" gradientTransform="translate(29 53.5) rotate(90) scale(0.845361 13.5258)">
<stop stop-color="white"/>
<stop offset="1" stop-color="#555555"/>
</radialGradient>
<radialGradient id="paint62_radial_2_152" cx="0" cy="0" r="1" gradientUnits="userSpaceOnUse" gradientTransform="translate(29 55.5) rotate(90) scale(0.845361 13.5258)">
<stop stop-color="white"/>
<stop offset="1" stop-color="#555555"/>
</radialGradient>
<radialGradient id="paint63_radial_2_152" cx="0" cy="0" r="1" gradientUnits="userSpaceOnUse" gradientTransform="translate(30 57.5) rotate(90) scale(0.845361 11.8351)">
<stop stop-color="white"/>
<stop offset="1" stop-color="#555555"/>
</radialGradient>
<radialGradient id="paint64_radial_2_152" cx="0" cy="0" r="1" gradientUnits="userSpaceOnUse" gradientTransform="translate(9.5 51.5) rotate(90) scale(0.845361 7.60825)">
<stop stop-color="white"/>
<stop offset="1" stop-color="#555555"/>
</radialGradient>
<radialGradient id="paint65_radial_2_152" cx="0" cy="0" r="1" gradientUnits="userSpaceOnUse" gradientTransform="translate(8.5 53.5) rotate(90) scale(0.845361 7.60825)">
<stop stop-color="white"/>
<stop offset="1" stop-color="#555555"/>
</radialGradient>
<radialGradient id="paint66_radial_2_152" cx="0" cy="0" r="1" gradientUnits="userSpaceOnUse" gradientTransform="translate(7.5 55.5) rotate(90) scale(0.845361 7.60825)">
<stop stop-color="white"/>
<stop offset="1" stop-color="#555555"/>
</radialGradient>
<radialGradient id="paint67_radial_2_152" cx="0" cy="0" r="1" gradientUnits="userSpaceOnUse" gradientTransform="translate(7 57.5) rotate(90) scale(0.845361 6.76289)">
<stop stop-color="white"/>
<stop offset="1" stop-color="#555555"/>
</radialGradient>
<radialGradient id="paint68_radial_2_152" cx="0" cy="0" r="1" gradientUnits="userSpaceOnUse" gradientTransform="translate(6 59.5) rotate(90) scale(0.845361 6.76289)">
<stop stop-color="white"/>
<stop offset="1" stop-color="#555555"/>
</radialGradient>
<radialGradient id="paint69_radial_2_152" cx="0" cy="0" r="1" gradientUnits="userSpaceOnUse" gradientTransform="translate(4.5 61.5) rotate(90) scale(0.845361 5.91753)">
<stop stop-color="white"/>
<stop offset="1" stop-color="#555555"/>
</radialGradient>
<radialGradient id="paint70_radial_2_152" cx="0" cy="0" r="1" gradientUnits="userSpaceOnUse" gradientTransform="translate(4 63.5) rotate(90) scale(0.845361 5.07216)">
<stop stop-color="white"/>
<stop offset="1" stop-color="#555555"/>
</radialGradient>
<radialGradient id="paint71_radial_2_152" cx="0" cy="0" r="1" gradientUnits="userSpaceOnUse" gradientTransform="translate(2.5 65.5) rotate(90) scale(0.845361 4.2268)">
<stop stop-color="white"/>
<stop offset="1" stop-color="#555555"/>
</radialGradient>
<radialGradient id="paint72_radial_2_152" cx="0" cy="0" r="1" gradientUnits="userSpaceOnUse" gradientTransform="translate(52 49.5) rotate(90) scale(0.845361 79.4639)">
<stop stop-color="white"/>
<stop offset="1" stop-color="#555555"/>
</radialGradient>
<radialGradient id="paint73_radial_2_152" cx="0" cy="0" r="1" gradientUnits="userSpaceOnUse" gradientTransform="translate(57 51.5) rotate(90) scale(0.845361 64.2474)">
<stop stop-color="white"/>
<stop offset="1" stop-color="#555555"/>
</radialGradient>
</defs>
</svg>
