<?xml version="1.0" encoding="utf-8"?>
<!-- Generator: Adobe Illustrator 19.0.0, SVG Export Plug-In . SVG Version: 6.00 Build 0)  -->
<svg version="1.1" id="layer" xmlns="http://www.w3.org/2000/svg" xmlns:xlink="http://www.w3.org/1999/xlink" x="0px" y="0px"
	 viewBox="-153 -46 652 652" style="enable-background:new -153 -46 652 652;" xml:space="preserve">
<style type="text/css">
	.st0{fill:#575756;}
</style>
<path class="st0" d="M375.7,277.6h91.2c0,0,0,0,0,0c0.8-0.5,1.4-0.9,1.8-1.3H376C376,276.7,375.8,277.1,375.7,277.6 M376,275.1h92.7
	c-0.4-0.4-1-0.8-1.8-1.3c0,0,0,0,0,0h-91.2C375.8,274.4,376,274.8,376,275.1 M464.5,278.8h-73.5c4.2,0.4,13.5,1.2,21.4,1.3h45.2
	C460.3,280.1,462.6,279.5,464.5,278.8 M457.5,271.4h-45.2c-7.8,0.1-17.1,0.9-21.4,1.3h73.5C462.6,272,460.3,271.4,457.5,271.4
	 M406.2,286.3h-9.9c1.9,0.3,5.9,1,9.9,1.3V286.3z M406.2,283.8H394c2.4,0.3,7.2,1,12.2,1.3V283.8z M406.2,281.3h-13.5
	c2.6,0.3,8,1,13.5,1.3V281.3z M406.2,265.2v-1.3c-4,0.3-8,0.9-9.9,1.3H406.2z M406.2,267.7v-1.3c-4.9,0.3-9.8,1-12.2,1.3H406.2z
	 M406.2,270.2v-1.3c-5.5,0.3-10.9,1-13.5,1.3H406.2z M371.6,291.3c-0.2,0.5-0.3,0.9-0.5,1.3l4.2-0.5c0.3-0.3,0.5-0.4,0.7-0.8H371.6z
	 M375.4,278.8c-0.1,0.2-0.2,0.7-0.3,1.3l7.9-0.7l0.3-0.6H375.4z M370.7,293.8c-0.2,0.6-0.4,1.1-0.5,1.3c0.6,0,2.5-0.2,3.6-1.3H370.7
	z M372.5,288.8c-0.1,0.4-0.3,0.9-0.4,1.3l5.3-0.6c0.3-0.4,0.3-0.3,0.5-0.7H372.5z M373.3,286.3l-0.1,0.2c-0.1,0.4-0.2,0.7-0.4,1.1
	l6-0.6l0.4-0.7H373.3z M374,283.8c-0.1,0.4-0.3,0.9-0.4,1.3l6.6-0.6l0.4-0.7H374z M374.8,281.3c-0.1,0.4-0.2,0.8-0.4,1.3l7.2-0.7
	l0.3-0.6H374.8z M376.1,260.2c-0.3-0.4-0.4-0.5-0.7-0.8l-4.2-0.5c0.1,0.4,0.3,0.8,0.5,1.3H376.1z M383.2,272.7l-0.3-0.6l-7.9-0.7
	c0.2,0.6,0.3,1.1,0.3,1.3H383.2z M373.8,257.7c-1.1-1.1-3-1.3-3.6-1.3c0.1,0.2,0.3,0.7,0.5,1.3H373.8z M377.8,262.7
	c-0.2-0.4-0.2-0.3-0.5-0.7l-5.3-0.6c0.1,0.4,0.3,0.8,0.4,1.3H377.8z M379.3,265.2l-0.4-0.7l-6-0.6c0.1,0.4,0.2,0.7,0.4,1.1l0.1,0.2
	H379.3z M380.6,267.7l-0.4-0.7l-6.6-0.6c0.1,0.4,0.3,0.9,0.4,1.3H380.6z M382,270.2l-0.3-0.6l-7.2-0.7c0.1,0.5,0.2,0.9,0.4,1.3H382z
	 M401.8,325c0.6,0,2-0.1,3.2-0.9c0.1-0.1,0.3-0.2,0.5-0.4H402l-0.3,1.3H401.8z M406.6,322.5c0.3-0.4,0.7-0.8,1-1.3h-4.9l-0.3,1.3
	H406.6z M408.5,320c0.3-0.4,0.6-0.8,0.9-1.3h-6.1L403,320H408.5z M410.3,317.5c0.3-0.4,0.6-0.9,0.9-1.3H404l-0.3,1.3H410.3z
	 M412,315.1c0.3-0.4,0.6-0.9,0.9-1.3h-8.2l-0.3,1.3H412z M413.6,312.6c0.3-0.4,0.6-0.9,0.8-1.3h-9.1l-0.3,1.3H413.6z M415.2,310.1
	L415.2,310.1c0.3-0.5,0.5-0.9,0.8-1.3h-10.1l-0.1,0.6l1-0.1l-1,0.8H415.2z M416.7,307.6c0.3-0.4,0.5-0.9,0.8-1.3h-10.9l-0.2,0.7
	l3.9-0.2l-1.1,0.8H416.7z M418.2,305.1c0.2-0.4,0.5-0.9,0.8-1.3h-11.7l-0.2,0.9l6.7-0.4l-1.1,0.8H418.2z M419.6,302.6
	c0.3-0.4,0.5-0.9,0.8-1.3h-12.6l-0.3,1l9.5-0.5l-1,0.8H419.6z M421.1,300.1l0.7-1.3h-13.3l-0.3,1.2l12.4-0.7l-1.1,0.8H421.1z
	 M422.2,296.8l0.4,0.7l0.7-1.2h-14.1l-0.3,1.3L422.2,296.8z M424,295.1l0.7-1.3h-14.9l-0.3,1.2l11.2-0.6l0.4,0.8H424z M425.4,292.6
	l0.7-1.3h-15.7l-0.3,1l9.1-0.5l0.5,0.8H425.4z M426.8,290.1l0.7-1.3h-16.5l-0.2,0.9l7-0.4l0.4,0.8H426.8z M428.2,287.6l0.7-1.3
	h-17.2l-0.2,0.8l4.8-0.3l0.4,0.8H428.2z M429.6,285.1l0.7-1.3h-18l-0.2,0.7l2.7-0.2l0.4,0.8H429.6z M431,282.6l0.7-1.3H413l-0.1,0.5
	l0.5,0l0.5,0.8H431z M405.5,227.8c-0.2-0.2-0.4-0.3-0.5-0.4c-1.2-0.8-2.6-0.9-3.2-0.9h-0.1l0.3,1.3H405.5z M407.6,230.3
	c-0.4-0.5-0.7-0.9-1-1.3h-4.2l0.3,1.3H407.6z M409.4,232.7c-0.3-0.5-0.6-0.9-0.9-1.3H403l0.3,1.3H409.4z M411.1,235.2
	c-0.3-0.4-0.6-0.9-0.9-1.3h-6.6l0.3,1.3H411.1z M412.8,237.7c-0.3-0.4-0.6-0.9-0.9-1.3h-7.7l0.3,1.3H412.8z M414.4,240.2
	c-0.3-0.4-0.6-0.9-0.8-1.3h-8.7l0.3,1.3H414.4z M416,242.7c-0.3-0.4-0.5-0.8-0.8-1.2l0-0.1h-9.4l1,0.8l-1,0l0.1,0.6H416z
	 M417.5,245.2c-0.3-0.4-0.5-0.9-0.8-1.3h-7.5l1.1,0.8l-3.9-0.2l0.2,0.7H417.5z M418.9,247.7c-0.3-0.4-0.5-0.9-0.8-1.3h-5.6l1.1,0.8
	l-6.7-0.4l0.2,0.9H418.9z M420.4,250.2c-0.3-0.4-0.5-0.9-0.8-1.3h-3.6l1,0.8l-9.5-0.5l0.3,1H420.4z M421.8,252.7l-0.7-1.3h-1.6
	l1.1,0.8l-12.4-0.7l0.3,1.2H421.8z M423.3,255.2l-0.7-1.2l-0.4,0.7l-13.4-0.8l0.3,1.3H423.3z M424.7,257.7l-0.7-1.3h-2.8l-0.4,0.8
	l-11.2-0.6l0.3,1.2H424.7z M426.1,260.2l-0.7-1.3h-5.7l-0.5,0.8l-9.1-0.5l0.3,1H426.1z M427.5,262.7l-0.7-1.3h-8.6l-0.4,0.8l-7-0.4
	l0.2,0.9H427.5z M429,265.2l-0.7-1.3h-11.4l-0.4,0.8l-4.8-0.3l0.2,0.8H429z M430.4,267.7l-0.7-1.3h-14.3l-0.4,0.8l-2.7-0.2l0.2,0.7
	H430.4z M413,270.2l-0.1-0.5l0.5,0l0.5-0.8H431l0.7,1.3H413z M88.1,271.7c-0.2-3.5-1.6-6.7-3.5-8.8c-1.4-1.5-2.6-2-5.1-2
	c-2,0-2.3,0.2-2.3,1.5v25.9c0,1.7,0.9,2.7,2.3,2.7H82v0.7H66.8v-0.7h3.3c1.4,0,2.3-1,2.3-2.7v-25.9c0-1.2-0.4-1.5-1.8-1.5
	c-3.5,0-7.4,0.3-9.2,10.8h-0.7V260h28.1v11.6H88.1z M26.6,260H55v11.6h-0.7c-0.7-3.1-2.7-10.8-10.1-10.8h-5.9
	c-0.7,0-1.1,0.5-1.1,1.5v12.8h1.6c4.6,0,7-2.7,7.2-8.2l0.7,0v17.5H46c0-3.4-0.5-5-2-6.5c-1.3-1.4-3-2.1-4.9-2.1h-1.9v13.3
	c0,1.2,0.4,1.6,1.4,1.6h6c3.5,0,7.8-2,9.8-5.6c1-1.9,1.5-3.7,1.8-5.2H57l-1.6,11.6H26.6v-0.7h3.6c1.4,0,2.3-1,2.3-2.7v-24.8
	c0-1.7-0.8-2.7-2.3-2.7h-3.6V260z M20.2,279c0,11-9.4,13.7-14,13.7c-7,0-13.3-4.2-13.3-9.6c0-3,1.6-5.2,3.9-5.2
	c1.9,0,3.6,1.7,3.6,3.7c0,1.9-0.9,3.3-2.9,4.2c-1.2,0.5-1.5,0.9-1.5,1.6c0.1,2.3,4.7,4.4,9.3,4.4c8,0,9.8-5.1,9.9-8.2v-27.2
	c0-2.2-1.1-3.4-2.9-3.4H7.8v-0.7h19.3v0.7h-4c-1.9,0-2.9,1.2-2.9,3.4V279z M-53.3,260h28.3v11.6h-0.7c-0.7-3.1-2.7-10.8-10.1-10.8
	h-5.9c-0.7,0-1.1,0.5-1.1,1.5v12.8h1.6c4.6,0,7-2.7,7.1-8.2l0.7,0v17.5H-34c0-3.4-0.5-5-2-6.5c-1.3-1.4-3-2.1-4.9-2.1h-1.9v13.3
	c0,1.2,0.4,1.6,1.4,1.6h6c3.5,0,7.8-2,9.8-5.6c1-1.9,1.4-3.7,1.8-5.2h0.7l-1.6,11.6h-28.8v-0.7h3.6c1.4,0,2.3-1,2.3-2.7v-24.8
	c0-1.7-0.8-2.7-2.3-2.7h-3.6V260z M-93.1,260h15.2v0.7h-2.6c-1.4,0-2.3,1-2.3,2.7v11.7h16.7v-11.7c0-1.7-0.8-2.7-2.3-2.7H-71V260
	h14.3v0.7h-2.4c-1.4,0-2.3,1-2.3,2.7v24.8c0,1.7,0.9,2.7,2.3,2.7h2.5v0.7H-71v-0.7h2.5c1.4,0,2.3-1,2.3-2.7v-12.3h-16.7v12.3
	c0,1.7,0.9,2.7,2.3,2.7h2.6v0.7h-15.2v-0.7h3.3c1.4,0,2.3-1,2.3-2.7v-24.8c0-1.7-0.8-2.7-2.3-2.7h-3.4V260z M-97.7,266.1
	c-0.3-4.3-1.3-7.4-3.7-10c-1.7-1.9-3.9-2.5-7.1-2.5c-2.5,0-2.9,0.2-2.9,1.9v32.1c0,2.2,1.1,3.4,2.9,3.4h4v0.7h-19.3v-0.7h4.3
	c1.8,0,2.9-1.2,2.9-3.4v-32.1c0-1.5-0.5-1.9-2.3-1.9c-4.4,0-10.1-0.8-11.5,12.5h-0.9v-13.2h34.4v13.2H-97.7z M348.8,261.9h0.1
	c0.8,0,1.2-0.3,1.2-0.9c0-0.5-0.4-0.9-0.9-0.9c-0.1,0-0.2,0-0.4,0.1V261.9z M347.7,259.9h1.8c0.8,0,1.4,0.4,1.4,1.1
	c0,0.5-0.3,0.8-1,1l1,1.4c0.2,0.3,0.3,0.4,0.6,0.4v0.2h-0.8l-1.4-1.9h-0.4v1.4c0,0.2,0.2,0.3,0.5,0.3v0.2h-1.7v-0.2
	c0.2,0,0.3,0,0.4-0.1c0.1-0.1,0.1-0.1,0.1-0.5v-2.5c0-0.4,0-0.5-0.4-0.5V259.9z M346.5,261.9c0,1.7,1.4,3,3,3c1.7,0,3-1.3,3-3
	c0-1.7-1.4-3-3-3C347.9,258.9,346.5,260.3,346.5,261.9 M352.9,261.9c0,1.8-1.5,3.3-3.3,3.3c-1.8,0-3.3-1.5-3.3-3.3
	c0-1.8,1.5-3.3,3.3-3.3C351.4,258.6,352.9,260.1,352.9,261.9 M241.3,260.1v0.7h0.2c1.7,0,3.6,0.7,4.6,1.7c1.6,1.6,2.4,4.2,2.4,7.9
	v15.2L231,260.1h-9.8v0.7h1.1c3.6,0,5.4,2.5,5.4,7.7v13c0,3.6,0,6.2-1.9,7.9c-1,0.9-2.8,1.6-4.3,1.6h-0.3v0.7h14.7V291h-0.9
	c-4.3,0-6.6-3.2-6.6-9.5v-17.1l18.7,27.2h2.2v-21.2c0-5.7,0.2-7.2,1.4-8.4c0.8-0.8,2.2-1.3,3.7-1.3h0.3v-0.7H241.3z M321,277.6
	c0.8,3.9,3,14.3,12.9,14.3c4.1,0,7.1-2.6,7.1-6.1c0-4.5-5.7-6.6-10-8.2c-3.5-1.3-6-2.4-7.2-3.3c-0.3-0.2-0.6-0.5-0.9-0.8
	c-1.5-1.5-2.5-3.6-2.5-5.5c0-4.8,3.8-8.5,8.8-8.5c3.4,0,5.9,1.2,8.9,4.3c1.3-1.4,1.8-2.2,2.4-3.9h0.8V272h-0.8
	c-0.4-2.7-0.7-3.7-1.7-5.5c-1.9-3.6-5.4-6.4-9.7-6.4c-3.6,0-6.6,2.5-6.6,5.4c0,3.5,4,5.2,9.2,7c3.5,1.2,6.1,2.4,7.3,3.3
	c2.8,2.2,3.9,4.9,3.9,7.6c0,5.3-4.1,9.2-9.7,9.2c-3.7,0-7.3-2-9.7-5.5c0,0-2,1.8-2.7,4.5h-0.8v-14.1H321z M176.8,277.6
	c0.8,3.9,3,14.3,12.9,14.3c4.1,0,7.1-2.6,7.1-6.1c0-4.5-5.7-6.6-10-8.2c-3.6-1.3-6-2.4-7.2-3.3c-0.3-0.2-0.6-0.5-0.9-0.8
	c-1.5-1.5-2.5-3.6-2.5-5.5c0-4.8,3.9-8.5,8.8-8.5c3.4,0,5.9,1.2,8.9,4.3c1.3-1.4,1.8-2.2,2.4-3.9h0.8V272h-0.8
	c-0.4-2.7-0.7-3.7-1.7-5.5c-1.9-3.6-5.4-6.4-9.7-6.4c-3.6,0-6.6,2.5-6.6,5.4c0,3.5,4,5.2,9.2,7c3.5,1.2,6.1,2.4,7.3,3.3
	c2.8,2.2,3.9,4.9,3.9,7.6c0,5.3-4.1,9.2-9.7,9.2c-3.8,0-7.3-2-9.7-5.5c0,0-2,1.8-2.7,4.5H176v-14.1H176.8z M292.8,277.6
	c0.8,3.9,3,14.3,12.9,14.3c4.1,0,7.1-2.6,7.1-6.1c0-4.5-5.7-6.6-10-8.2c-3.6-1.3-6-2.4-7.2-3.3c-0.3-0.2-0.6-0.5-0.9-0.8
	c-1.5-1.5-2.5-3.6-2.5-5.5c0-4.8,3.8-8.5,8.8-8.5c3.4,0,5.9,1.2,8.9,4.3c1.3-1.4,1.8-2.2,2.4-3.9h0.8V272h-0.8
	c-0.4-2.7-0.7-3.7-1.7-5.5c-1.9-3.6-5.4-6.4-9.7-6.4c-3.6,0-6.6,2.5-6.6,5.4c0,3.5,4,5.2,9.2,7c3.5,1.2,6.1,2.4,7.3,3.3
	c2.8,2.2,3.9,4.9,3.9,7.6c0,5.3-4.1,9.2-9.7,9.2c-3.7,0-7.3-2-9.7-5.5c0,0-2,1.8-2.7,4.5H292v-14.1H292.8z M257.4,260.1h27.7v11.6
	h-0.7c-0.7-3.1-2.7-10.8-10.1-10.8h-5.9c-0.7,0-1.1,0.5-1.1,1.5v12.8h1.6c4.6,0,7-2.7,7.1-8.2l0.7,0v17.5h-0.7c0-3.4-0.5-5-2-6.5
	c-1.3-1.4-3-2.1-4.9-2.1h-1.9v13.3c0,1.2,0.4,1.6,1.4,1.6h6c3.5,0,7.8-2,9.8-5.6c1-1.9,1.4-3.7,1.8-5.2h0.7l-1.6,11.6h-28.2V291h3
	c1.4,0,2.3-1,2.3-2.7v-24.8c0-1.7-0.8-2.7-2.3-2.7h-3V260.1z M202.6,291h2.7c1.5,0,2.2-0.8,2.3-2.7v-24.8c0-1.7-0.8-2.7-2.3-2.7
	h-2.7v-0.7h14.6v0.7h-2.6c-1.4,0-2.3,1-2.3,2.7v24.8c0,1.7,0.9,2.7,2.3,2.7h2.6v0.7h-14.6V291z M173.6,260.8
	c-3.8,0.2-5.5,2.4-5.5,7.2v11.9c0,7.5-4.9,12.8-11.9,12.8c-3.3,0-6.6-1.3-8.6-3.3c-2.7-2.7-2.8-6.1-2.9-8.7v-17.1
	c0-1.7-0.8-2.7-2.3-2.7h-3.1v-0.7H155v0.7h-3.4c-1.6,0-2.2,0.8-2.2,2.9v17.9c0,3.6,0.7,5.9,2.2,7.6c1.4,1.5,3.4,2.3,5.9,2.3
	c5.9,0,10-4.7,10-11.7v-10.7c0-2.9-0.7-5.3-1.8-6.5c-0.9-1-2.8-1.8-4.2-1.8h-0.5v-0.7h12.7V260.8z M115.2,271.6V289
	c0,1.5,0.4,2,1.6,2h5.1c5.9,0,9.9-3.9,9.9-9.6c0-5.7-4.7-9.7-11.3-9.7H115.2z M115.2,270.7h5.2c6,0,9.7-3.3,9.7-8.6
	c0-5.1-3.2-8.5-8.1-8.5h-5.3c-1,0-1.5,0.6-1.5,2V270.7z M103.6,252.9h17.3c8.6-0.4,14.8,3.5,14.8,8.6c0,4.7-3,7.5-11.6,9.7
	c4.4,0.8,5.5,1.3,8.2,2.9c2.2,1.2,5.4,3.7,5.4,7.4c0,5.7-7.2,10.5-16.3,10.2h-17.8v-0.6h3.5c1.8,0,2.9-1.2,2.9-3.4v-31
	c0-2.2-1.1-3.4-2.9-3.4h-3.5V252.9z"/>
</svg>
